<mxfile host="app.diagrams.net" modified="2021-08-18T02:35:40.135Z" agent="5.0 (Windows NT 10.0; Win64; x64) AppleWebKit/537.36 (KHTML, like Gecko) Chrome/92.0.4515.131 Safari/537.36" etag="7E6KMtFFk65FflLPBSRx" version="14.7.6" type="github">
  <diagram id="j4JEobw6PDeKN6bz4soK" name="Page-1">
    <mxGraphModel dx="1422" dy="762" grid="1" gridSize="10" guides="1" tooltips="1" connect="1" arrows="1" fold="1" page="1" pageScale="1" pageWidth="1200" pageHeight="1600" math="0" shadow="0">
      <root>
        <mxCell id="0" />
        <mxCell id="1" parent="0" />
        <mxCell id="huare_xG_69uS2KyfuQX-21" value="" style="shape=table;html=1;whiteSpace=wrap;startSize=0;container=1;collapsible=0;childLayout=tableLayout;" parent="1" vertex="1">
          <mxGeometry x="360" y="440" width="300" height="40" as="geometry" />
        </mxCell>
        <mxCell id="huare_xG_69uS2KyfuQX-22" value="" style="shape=partialRectangle;html=1;whiteSpace=wrap;collapsible=0;dropTarget=0;pointerEvents=0;fillColor=none;top=0;left=0;bottom=0;right=0;points=[[0,0.5],[1,0.5]];portConstraint=eastwest;" parent="huare_xG_69uS2KyfuQX-21" vertex="1">
          <mxGeometry width="300" height="40" as="geometry" />
        </mxCell>
        <mxCell id="huare_xG_69uS2KyfuQX-23" value="1" style="shape=partialRectangle;html=1;whiteSpace=wrap;connectable=0;overflow=hidden;fillColor=none;top=0;left=0;bottom=0;right=0;" parent="huare_xG_69uS2KyfuQX-22" vertex="1">
          <mxGeometry width="60" height="40" as="geometry" />
        </mxCell>
        <mxCell id="huare_xG_69uS2KyfuQX-24" value="2" style="shape=partialRectangle;html=1;whiteSpace=wrap;connectable=0;overflow=hidden;fillColor=none;top=0;left=0;bottom=0;right=0;" parent="huare_xG_69uS2KyfuQX-22" vertex="1">
          <mxGeometry x="60" width="60" height="40" as="geometry" />
        </mxCell>
        <mxCell id="huare_xG_69uS2KyfuQX-25" value="3" style="shape=partialRectangle;html=1;whiteSpace=wrap;connectable=0;overflow=hidden;fillColor=none;top=0;left=0;bottom=0;right=0;" parent="huare_xG_69uS2KyfuQX-22" vertex="1">
          <mxGeometry x="120" width="60" height="40" as="geometry" />
        </mxCell>
        <mxCell id="huare_xG_69uS2KyfuQX-26" value="2" style="shape=partialRectangle;html=1;whiteSpace=wrap;connectable=0;overflow=hidden;fillColor=none;top=0;left=0;bottom=0;right=0;" parent="huare_xG_69uS2KyfuQX-22" vertex="1">
          <mxGeometry x="180" width="60" height="40" as="geometry" />
        </mxCell>
        <mxCell id="huare_xG_69uS2KyfuQX-27" value="1" style="shape=partialRectangle;html=1;whiteSpace=wrap;connectable=0;overflow=hidden;fillColor=none;top=0;left=0;bottom=0;right=0;" parent="huare_xG_69uS2KyfuQX-22" vertex="1">
          <mxGeometry x="240" width="60" height="40" as="geometry" />
        </mxCell>
        <mxCell id="huare_xG_69uS2KyfuQX-32" value="" style="shape=table;html=1;whiteSpace=wrap;startSize=0;container=1;collapsible=0;childLayout=tableLayout;" parent="1" vertex="1">
          <mxGeometry x="480" y="510" width="240" height="40" as="geometry" />
        </mxCell>
        <mxCell id="huare_xG_69uS2KyfuQX-33" value="" style="shape=partialRectangle;html=1;whiteSpace=wrap;collapsible=0;dropTarget=0;pointerEvents=0;fillColor=none;top=0;left=0;bottom=0;right=0;points=[[0,0.5],[1,0.5]];portConstraint=eastwest;" parent="huare_xG_69uS2KyfuQX-32" vertex="1">
          <mxGeometry width="240" height="40" as="geometry" />
        </mxCell>
        <mxCell id="huare_xG_69uS2KyfuQX-34" value="3" style="shape=partialRectangle;html=1;whiteSpace=wrap;connectable=0;overflow=hidden;fillColor=none;top=0;left=0;bottom=0;right=0;" parent="huare_xG_69uS2KyfuQX-33" vertex="1">
          <mxGeometry width="60" height="40" as="geometry" />
        </mxCell>
        <mxCell id="huare_xG_69uS2KyfuQX-35" value="2" style="shape=partialRectangle;html=1;whiteSpace=wrap;connectable=0;overflow=hidden;fillColor=none;top=0;left=0;bottom=0;right=0;" parent="huare_xG_69uS2KyfuQX-33" vertex="1">
          <mxGeometry x="60" width="60" height="40" as="geometry" />
        </mxCell>
        <mxCell id="huare_xG_69uS2KyfuQX-36" value="1" style="shape=partialRectangle;html=1;whiteSpace=wrap;connectable=0;overflow=hidden;fillColor=none;top=0;left=0;bottom=0;right=0;" parent="huare_xG_69uS2KyfuQX-33" vertex="1">
          <mxGeometry x="120" width="60" height="40" as="geometry" />
        </mxCell>
        <mxCell id="huare_xG_69uS2KyfuQX-37" value="4" style="shape=partialRectangle;html=1;whiteSpace=wrap;connectable=0;overflow=hidden;fillColor=none;top=0;left=0;bottom=0;right=0;" parent="huare_xG_69uS2KyfuQX-33" vertex="1">
          <mxGeometry x="180" width="60" height="40" as="geometry" />
        </mxCell>
        <mxCell id="qa4fYLLOlrgLFSoi0n6N-1" value="&lt;pre style=&quot;background-color: #ffffff ; color: #080808 ; font-family: &amp;#34;jetbrains mono&amp;#34; , monospace ; font-size: 9.0pt&quot;&gt;&lt;span style=&quot;color: #000000&quot;&gt;t_calendar_period&lt;/span&gt;&lt;/pre&gt;时段表: 保存9:30-10:30这种数据(简单表)" style="rounded=0;whiteSpace=wrap;html=1;" vertex="1" parent="1">
          <mxGeometry x="50" y="710" width="240" height="120" as="geometry" />
        </mxCell>
        <mxCell id="qa4fYLLOlrgLFSoi0n6N-3" style="edgeStyle=orthogonalEdgeStyle;rounded=0;orthogonalLoop=1;jettySize=auto;html=1;exitX=0;exitY=0.5;exitDx=0;exitDy=0;" edge="1" parent="1" source="qa4fYLLOlrgLFSoi0n6N-2" target="qa4fYLLOlrgLFSoi0n6N-1">
          <mxGeometry relative="1" as="geometry" />
        </mxCell>
        <mxCell id="qa4fYLLOlrgLFSoi0n6N-2" value="&lt;pre style=&quot;background-color: #ffffff ; color: #080808 ; font-family: &amp;#34;jetbrains mono&amp;#34; , monospace ; font-size: 9.0pt&quot;&gt;&lt;span style=&quot;color: #000000&quot;&gt;t_calendar_todo&lt;/span&gt;&lt;/pre&gt;代办表:&amp;nbsp;&lt;br&gt;时段, 描述, 类型, userid, 状态" style="rounded=0;whiteSpace=wrap;html=1;" vertex="1" parent="1">
          <mxGeometry x="370" y="685" width="700" height="170" as="geometry" />
        </mxCell>
        <mxCell id="qa4fYLLOlrgLFSoi0n6N-4" value="&lt;pre style=&quot;background-color: #ffffff ; color: #080808 ; font-family: &amp;#34;jetbrains mono&amp;#34; , monospace ; font-size: 9.0pt&quot;&gt;&lt;span style=&quot;color: #000000&quot;&gt;t_calendar&lt;/span&gt;&lt;pre style=&quot;font-family: , monospace ; font-size: 9pt&quot;&gt;&lt;span style=&quot;color: #8c8c8c ; font-style: italic&quot;&gt;员工&lt;/span&gt;&lt;span style=&quot;color: #8c8c8c ; font-style: italic ; font-family: &amp;#34;jetbrains mono&amp;#34; , monospace&quot;&gt;id, &lt;/span&gt;&lt;span style=&quot;color: #8c8c8c ; font-style: italic&quot;&gt;日期&lt;/span&gt;&lt;span style=&quot;color: #8c8c8c ; font-style: italic ; font-family: &amp;#34;jetbrains mono&amp;#34; , monospace&quot;&gt;, &lt;/span&gt;&lt;span style=&quot;color: #8c8c8c ; font-style: italic&quot;&gt;是否排班&lt;/span&gt;&lt;/pre&gt;&lt;/pre&gt;" style="rounded=0;whiteSpace=wrap;html=1;" vertex="1" parent="1">
          <mxGeometry x="50" y="910" width="240" height="120" as="geometry" />
        </mxCell>
      </root>
    </mxGraphModel>
  </diagram>
</mxfile>
